<svg xmlns="http://www.w3.org/2000/svg" viewBox="0 0 512 512">
  <!-- Official UPB escudo. Vector: Wikimedia Commons "Escudo UPB.svg", CC BY 4.0 -->
  <rect width="512" height="512" rx="96" fill="#ffffff"/>
  <g transform="translate(70 50) scale(1.51)">
    <g fill="#ff0017" stroke="#000" stroke-width="2" stroke-miterlimit="10">
      <polygon points="48.05 116.54 26.58 116.54 2.47 66.33 1 66.33 1 201.07 2.79 201.07 26.47 155.7 48.05 155.81 48.05 116.54"/>
      <polygon points="198.79 116.54 220.26 116.54 244.37 66.33 245.84 66.33 245.84 201.07 244.05 201.07 220.37 155.7 198.79 155.81 198.79 116.54"/>
      <polygon points="142.83 217.91 142.83 239.38 193.04 263.49 193.04 264.96 58.31 264.96 58.31 263.18 103.67 239.49 103.57 217.91 142.83 217.91"/>
      <polygon points="103.66 48.05 103.66 26.58 53.45 2.47 53.45 1 188.18 1 188.18 2.79 142.82 26.47 142.92 48.05 103.66 48.05"/>
    </g>
    <g fill="#ffca45" stroke="#000" stroke-width="2" stroke-miterlimit="10">
      <rect x="198.79" y="128.62" width="21.26" height="14.37"/>
      <rect x="118.79" y="228.3" width="21.26" height="14.37" transform="translate(-111.82 357.97) rotate(-90)"/>
      <rect x="118.79" y="37.18" width="21.26" height="14.37" transform="translate(79.3 166.85) rotate(-90)"/>
      <rect x="26.79" y="128.62" width="21.26" height="14.37"/>
      <path d="M129.44,231.82a7.33,7.33,0,0,0-7.3-7.13H85.39A38,38,0,0,1,54.19,201L53.82,199V55H204.56V201a38,38,0,0,1-31.21,23.65H136.56a7.34,7.34,0,0,0-7.11,7.34c0,.15,0,.29,0,.44" transform="translate(-5.77 -6.94)"/>
    </g>
    <path fill="#000" d="M129.63,214.22c0-.1,0-.2,0-.29A5.22,5.22,0,0,1,135,209h42.47a8.8,8.8,0,0,0,8.45-7.79V72H73V199.9l.07,1.29A8.81,8.81,0,0,0,81.5,209h42.65a5.27,5.27,0,0,1,5.47,4.8" transform="translate(-5.77 -6.94)"/>
    <path fill="#ffca45" stroke="#000" stroke-miterlimit="10" d="M126.16,128.63c.28,1.73,1.1,4,.7,5.14-.54,1.55-2,2.56-3.22,3.63a13.44,13.44,0,0,0-4.64,7.42,8.12,8.12,0,0,0,2.79,8,10.7,10.7,0,0,0,3.31,1.51,17.78,17.78,0,0,0,10,.31,11.07,11.07,0,0,0,7.34-6.46c1.23-3.37.35-7.24-1.55-10.29a29.81,29.81,0,0,0-7.58-7.57,43.42,43.42,0,0,0-4.06-3.19,10.29,10.29,0,0,0-3.76-1.45A10.25,10.25,0,0,1,126.16,128.63Z" transform="translate(-5.77 -6.94)"/>
    <path fill="#ffca45" d="M102.27,114.39V113.2c3.06-.34,3.43-.76,2.78-2.38s-1.55-3.78-2.54-6.45H92.36c-.75,1.91-1.46,3.56-2.12,5.3-1,2.77-.37,3.11,3.48,3.53v1.19H82.86V113.2c3-.34,3.72-.64,5.36-4.46L98,86.45l1.5-.26c3,7.26,6.21,15.29,9.17,22.64,1.5,3.69,1.93,4,5.26,4.37v1.19Zm-4.7-22.64c-1.5,3.66-3.1,7.52-4.51,10.88h8.79Z" transform="translate(-5.77 -6.94)"/>
    <path fill="#ffca45" d="M110.45,166.86c-2.73.17-3.73.84-3.81,2.75,0,1-.13,2.71-.13,6.54v4.5c0,4.24-.52,7.49-3,10-2,2-5,2.67-8,2.67a12.13,12.13,0,0,1-7.12-1.92c-2.6-1.91-3.86-4.79-3.86-9.66V171.15c0-3.74-.34-4-3.81-4.29V165.7H92.1v1.16c-3.47.21-3.81.55-3.81,4.29v10.41c0,6.08,3,9.41,8.2,9.41,6.16,0,8.11-3.66,8.11-10.57v-4.25c0-3.83-.13-5.41-.22-6.54-.13-1.87-1.13-2.58-4.34-2.75V165.7h10.41Z" transform="translate(-5.77 -6.94)"/>
    <path fill="#ffca45" d="M132.39,165.56c3.08,0,5.55.56,7.33,1.84a7.25,7.25,0,0,1,2.86,6.1c0,6.26-5.42,8.8-9.54,8.8a7.94,7.94,0,0,1-1.17-.09l-3-.77v6.69c0,3.61.31,3.7,4.3,4.13v1.2h-12v-1.2c3.73-.39,3.91-.65,3.91-4.21V171c0-3.82-.48-3.91-3.91-4.25v-1.2Zm-3.52,14.38a8.12,8.12,0,0,0,3.17.55c2.91,0,6.51-1.45,6.51-6.86,0-4.72-3.13-6.61-6.77-6.61a3.91,3.91,0,0,0-2.43.51c-.35.3-.48.82-.48,2Z" transform="translate(-5.77 -6.94)"/>
    <path fill="#ffca45" d="M167.82,178.46c4.16.68,7.55,2.66,7.55,6.82a7.4,7.4,0,0,1-4.21,6.61,14.42,14.42,0,0,1-7.5,1.68H153v-1.21c3.69-.34,3.91-.73,3.91-4.12V171c0-3.56-.39-3.86-3.91-4.16v-1.2h11.37c3.25,0,5.29.55,6.68,1.5a5.59,5.59,0,0,1,2.56,4.81C173.59,176,170.25,177.86,167.82,178.46Zm-5-.52c4.77,0,6.72-1.89,6.72-5.41,0-3-1.86-5.32-6-5.32a4.53,4.53,0,0,0-2.42.43c-.35.26-.48.73-.48,2.1v8.2Zm-2.21,10.22c0,3.09.74,3.86,3.82,3.86,3.38,0,6.68-1.8,6.68-6.31s-3.13-6.27-8.42-6.27h-2.08Z" transform="translate(-5.77 -6.94)"/>
    <path fill="#fed44a" d="M159.71,113.54v-2.67a7.83,7.83,0,0,0,5.85-3.66,15.23,15.23,0,0,0,2-8.24,17.09,17.09,0,0,0-1.1-6.84,8.08,8.08,0,0,0-3.2-3.7,9.85,9.85,0,0,0-5.18-1.27,11.79,11.79,0,0,0-4.32.79,7.72,7.72,0,0,0-3.39,2.54,9.55,9.55,0,0,0-1.82,3.85,20.92,20.92,0,0,0-.46,4.52,15.4,15.4,0,0,0,2,8.4,7.81,7.81,0,0,0,5.84,3.61v2.67c-1.32,0-3.17.07-5.56.1s-4.45.09-6.19.17q-.17-2.24-.66-5.92l.15-.13h.53l.15.13a12.88,12.88,0,0,0,.58,1.92,1.25,1.25,0,0,0,.67.63,4.25,4.25,0,0,0,1.53.19H152v-.29a12.44,12.44,0,0,1-5.82-4.84,13.66,13.66,0,0,1-2.05-7.45,12.35,12.35,0,0,1,1.59-6.46,10.33,10.33,0,0,1,4.73-4.07,18.46,18.46,0,0,1,7.65-1.43q6.51,0,10,3.2a11.29,11.29,0,0,1,3.47,8.76,16,16,0,0,1-.39,3.56,12.92,12.92,0,0,1-1.36,3.42,11.78,11.78,0,0,1-2.48,3,13.08,13.08,0,0,1-3.64,2.27v.29h4.9c1.09,0,1.75-.17,2-.5a7.91,7.91,0,0,0,.77-2.24l.15-.14H172l.15.14c-.33,2.45-.56,4.42-.67,5.91q-2.62-.1-6.15-.15Z" transform="translate(-5.77 -6.94)"/>
  </g>
</svg>
