<svg xmlns="http://www.w3.org/2000/svg" viewBox="0 0 512 512">
  <rect width="512" height="512" rx="96" fill="#ffffff"/>
  <g transform="translate(56 56) scale(4)">
    <!-- Red trumpet-cross arms -->
    <path d="M 50 2 L 41 2 L 35 16 Q 44 20 50 20 Q 56 20 65 16 L 59 2 Z" fill="#A6192E"/>
    <path d="M 50 98 L 41 98 L 35 84 Q 44 80 50 80 Q 56 80 65 84 L 59 98 Z" fill="#A6192E"/>
    <path d="M 2 50 L 2 41 L 16 35 Q 20 44 20 50 Q 20 56 16 65 L 2 59 Z" fill="#A6192E"/>
    <path d="M 98 50 L 98 41 L 84 35 Q 80 44 80 50 Q 80 56 84 65 L 98 59 Z" fill="#A6192E"/>
    <!-- Gold shield -->
    <path d="M 26 22 L 74 22 L 74 60 Q 74 78 50 86 Q 26 78 26 60 Z" fill="#E8B931" stroke="#1a1a1a" stroke-width="1"/>
    <!-- Black inner -->
    <path d="M 31 27 L 69 27 L 69 58 Q 69 73 50 80 Q 31 73 31 58 Z" fill="#1a1a1a"/>
    <!-- Letters -->
    <text x="38" y="42" font-family="Georgia, serif" font-size="11" font-weight="700" fill="#E8B931" text-anchor="middle">A</text>
    <text x="62" y="42" font-family="Georgia, serif" font-size="11" font-weight="700" fill="#E8B931" text-anchor="middle">&#937;</text>
    <!-- Lamp -->
    <ellipse cx="50" cy="56" rx="5" ry="3" fill="#E8B931"/>
    <rect x="48" y="55" width="4" height="2" fill="#E8B931"/>
    <path d="M 50 53 Q 52 51 51 48 Q 50 49.5 50 51 Q 50 49.5 49 48 Q 48 51 50 53 Z" fill="#A6192E"/>
    <!-- UPB -->
    <text x="50" y="72" font-family="Georgia, serif" font-size="8" font-weight="700" letter-spacing="0.5" fill="#E8B931" text-anchor="middle">UPB</text>
  </g>
</svg>
